<?xml version="1.0" encoding="UTF-8" standalone="no"?>
<svg
   xmlns:dc="http://purl.org/dc/elements/1.1/"
   xmlns:cc="http://creativecommons.org/ns#"
   xmlns:rdf="http://www.w3.org/1999/02/22-rdf-syntax-ns#"
   xmlns:svg="http://www.w3.org/2000/svg"
   xmlns="http://www.w3.org/2000/svg"
   id="svg8"
   version="1.1"
   viewBox="0 0 59.909225 59.909225"
   height="59.909225mm"
   width="59.909225mm">
  <defs
     id="defs2" />
  <metadata
     id="metadata5">
    <rdf:RDF>
      <cc:Work
         rdf:about="">
        <dc:format>image/svg+xml</dc:format>
        <dc:type
           rdf:resource="http://purl.org/dc/dcmitype/StillImage" />
        <dc:title></dc:title>
      </cc:Work>
    </rdf:RDF>
  </metadata>
  <g
     transform="translate(-76.639427,-855.43986)"
     id="layer1">
    <circle
       r="29.954613"
       cy="885.39447"
       cx="106.59404"
       id="path962"
       style="opacity:1;fill:#ffffff;fill-opacity:1;stroke:none;stroke-width:6.77499962;stroke-linecap:round;stroke-linejoin:round;stroke-miterlimit:4;stroke-dasharray:none;stroke-dashoffset:275.90545654;stroke-opacity:1" />
    <g
       transform="matrix(1.3245872,0,0,1.3245872,-20.335081,-274.50184)"
       id="g955">
      <path
         style="fill:#007fda;fill-opacity:1;stroke:none;stroke-width:18.38740158;stroke-linecap:round;stroke-linejoin:round;stroke-miterlimit:4;stroke-dasharray:none;stroke-opacity:0.81960784"
         d="m 145.37109,88.955078 a 74.820527,74.820527 0 0 0 -74.820309,74.820312 74.820527,74.820527 0 0 0 15.087891,44.9375 c -0.105621,-0.43511 -0.229729,-0.88046 -0.392578,-1.35156 0.702727,-3.79582 5.565934,-9.19644 12.734375,-12.63086 l -12.798828,0.0547 22.228519,-10.55469 -16.371098,-0.0117 c 4.105739,-3.40089 21.125508,-11.91767 23.958988,-17.15039 -1.1243,1.85783 -9.83831,5.82632 -15.355472,5.21094 2.009912,-2.926 7.394572,-9.42051 8.884762,-12.875 7.14388,-10.67252 7.10653,-21.78238 6.1875,-34.47071 0.65057,-1.69818 1.70357,-2.48942 3.09375,-2.52343 v 0.006 c 1.39019,-0.0341 3.11709,0.68809 5.11329,2.01757 8.22877,8.43262 13.23984,17.64487 15.7832,29.42188 5.74329,-1.31649 11.394,-0.33434 18.13086,4.31055 4.45277,5.83101 7.33367,11.2126 14.82617,17.9121 l 18.42578,7.53321 c 2.36107,7.2689 -5.83438,13.55693 -8.92187,14.49414 l -7.30469,0.31641 c -21.95508,0.83828 -29.97219,12.00383 -30.98828,17.30273 -1.33641,6.96927 -0.0415,16.13302 7.63476,22.68945 a 74.820527,74.820527 0 0 0 69.6836,-74.63867 74.820527,74.820527 0 0 0 -74.82032,-74.820312 z m 7.57618,35.582032 c 1.28602,0.11971 3.08131,1.20932 5.20507,3.0625 5.98976,6.54353 6.98072,17.96985 5.09375,27.92773 -5.94043,-7.27419 -11.29328,-7.1751 -16.02343,-8.44336 4.05006,-7.65055 3.83326,-7.02588 3.67187,-17.76367 -0.41136,-3.48831 0.39927,-4.93711 2.05274,-4.7832 z"
         transform="matrix(0.26458333,0,0,0.26458333,57.362642,832.35802)"
         id="circle1028" />
      <path
         style="fill:#376ec8;fill-opacity:1;stroke:none;stroke-width:18.38740158;stroke-linecap:round;stroke-linejoin:round;stroke-miterlimit:4;stroke-dasharray:none;stroke-opacity:0.81960784"
         d="m 83.242188,122.14258 c -8.262577,12.31332 -12.68003,26.80421 -12.691407,41.63281 4.7e-5,16.93796 5.634624,32.55509 15.123047,45.0957 -0.11092,-0.48376 -0.244879,-0.98078 -0.427734,-1.50976 0.131761,-0.71172 0.410276,-1.48032 0.822265,-2.28125 0.412066,-0.80102 0.957089,-1.63528 1.625,-2.47852 0.222296,-0.28065 0.460147,-0.56189 0.708985,-0.84375 3.08e-4,-3.5e-4 -3.09e-4,-0.002 0,-0.002 2.242903,-2.54013 5.545877,-5.09353 9.578125,-7.02539 l -12.798828,0.0547 22.228519,-10.55469 -16.371098,-0.0117 c 2.05287,-1.70045 7.334685,-4.68015 12.457028,-7.88867 1.92088,-1.2032 3.81812,-2.43817 5.51563,-3.65039 2.82919,-2.02037 5.10087,-3.97611 5.98633,-5.61133 -0.0703,0.11611 -0.16995,0.24011 -0.29688,0.37109 -0.25386,0.26194 -0.61555,0.54982 -1.06445,0.85157 -0.67332,0.45269 -1.54346,0.93553 -2.53711,1.40429 -0.66247,0.31243 -1.38064,0.6194 -2.13281,0.90625 -0.75163,0.2867 -1.53878,0.55402 -2.33789,0.78906 -0.79971,0.23522 -1.61282,0.43838 -2.41797,0.59571 -0.80515,0.15733 -1.60068,0.26898 -2.36914,0.32226 -6.4e-4,5e-5 -0.001,-4e-5 -0.002,0 -0.76775,0.0531 -1.50821,0.0476 -2.197262,-0.0293 0.502482,-0.7315 1.216602,-1.68542 2.027342,-2.75977 1.21611,-1.61146 2.65107,-3.49298 3.92188,-5.29492 0.42396,-0.6012 0.82801,-1.19301 1.20117,-1.76367 0.37289,-0.57019 0.71403,-1.11696 1.00781,-1.63086 0.29378,-0.51392 0.54029,-0.99397 0.72656,-1.42578 0.49636,-0.74153 0.95295,-1.48614 1.38086,-2.23242 0.075,-0.13041 0.13988,-0.26203 0.21289,-0.39258 0.34817,-0.62466 0.68023,-1.25042 0.98438,-1.87891 0.0668,-0.13731 0.1286,-0.2746 0.19336,-0.41211 0.30585,-0.65268 0.59502,-1.30751 0.85742,-1.96484 0.0315,-0.0786 0.0609,-0.15771 0.0918,-0.23633 0.29189,-0.746 0.56172,-1.49346 0.80273,-2.24609 z m 82.437502,77.15625 c -2.96496,0.54199 -5.58986,1.29764 -7.90235,2.19726 -2.18556,0.85025 -4.07858,1.83271 -5.73242,2.88282 -0.30289,0.19254 -0.59094,0.38898 -0.87695,0.58593 -0.3022,0.20786 -0.60884,0.41501 -0.89258,0.62696 -0.29915,0.22375 -0.5745,0.45235 -0.85351,0.67968 -0.23868,0.19423 -0.4906,0.38586 -0.71485,0.58204 -0.46271,0.40533 -0.89786,0.81304 -1.30078,1.22265 -6.7e-4,6.8e-4 -0.001,0.001 -0.002,0.002 -0.16833,0.17092 -0.31252,0.34074 -0.47071,0.51172 -0.25245,0.27328 -0.50526,0.54817 -0.73242,0.82032 -0.14814,0.17725 -0.27838,0.35309 -0.41601,0.52929 -0.19557,0.25074 -0.38966,0.50053 -0.56446,0.74805 -0.13615,0.19253 -0.2609,0.38237 -0.38476,0.57227 -0.15118,0.23212 -0.29642,0.46227 -0.42969,0.68945 -0.10752,0.18305 -0.21244,0.36378 -0.30859,0.54297 -0.12429,0.23196 -0.23605,0.45922 -0.3418,0.68359 -0.0755,0.16009 -0.15439,0.32089 -0.2207,0.47656 -0.11751,0.27623 -0.21726,0.54435 -0.30664,0.80469 -0.0292,0.085 -0.0656,0.17471 -0.0918,0.25781 -0.11214,0.35496 -0.20298,0.69324 -0.26367,1.00977 -0.0901,0.46978 -0.16535,0.95117 -0.23047,1.43945 -0.0168,0.12606 -0.0279,0.25565 -0.043,0.38282 -0.0431,0.36396 -0.0813,0.73126 -0.10938,1.10351 -0.0137,0.18283 -0.0213,0.36812 -0.0312,0.55273 -0.0164,0.30371 -0.0294,0.60799 -0.0351,0.91602 -0.004,0.23431 -0.004,0.47054 -0.002,0.70703 0.002,0.27734 0.01,0.556 0.0215,0.83594 0.0104,0.24719 0.0232,0.49525 0.041,0.74414 0.0191,0.26979 0.0461,0.54109 0.0742,0.8125 0.0278,0.26663 0.057,0.53296 0.0937,0.80078 0.0334,0.24439 0.0761,0.4893 0.11719,0.73438 0.048,0.28495 0.0917,0.56999 0.15039,0.85547 0.0471,0.22976 0.10785,0.4596 0.16211,0.68945 0.0717,0.30287 0.13813,0.60566 0.22266,0.9082 0.24368,0.87224 0.55155,1.74051 0.9082,2.60156 0.0565,0.13662 0.10655,0.27401 0.16602,0.41016 0.15345,0.35068 0.32626,0.69793 0.5,1.04492 0.08,0.1601 0.15577,0.32129 0.24023,0.48047 0.1797,0.33818 0.37604,0.67243 0.57617,1.00586 0.0987,0.16456 0.19703,0.32893 0.30078,0.49219 0.21191,0.33308 0.43634,0.66319 0.66993,0.99023 0.11118,0.1558 0.22557,0.31056 0.34179,0.46485 0.24098,0.31968 0.49089,0.6366 0.75391,0.94921 0.13477,0.16025 0.27727,0.31834 0.41797,0.47657 0.27554,0.30977 0.55482,0.61848 0.85351,0.91992 0.12832,0.12952 0.26771,0.25494 0.40039,0.38281 0.3353,0.3231 0.67148,0.64515 1.03516,0.95703 0.001,0.001 0.003,0.003 0.004,0.004 14.55655,-1.08079 28.86893,-6.62049 40.48828,-15.42774 z"
         transform="matrix(0.26458333,0,0,0.26458333,57.362642,832.35802)"
         id="circle936" />
      <path
         style="fill:#1059d9;fill-opacity:1;stroke:none;stroke-width:0.99999994px;stroke-linecap:butt;stroke-linejoin:miter;stroke-opacity:1"
         d="m 176.70703,95.923828 -23.07031,28.761722 c 1.20884,0.36435 2.74591,1.36982 4.51562,2.91406 5.98976,6.54353 6.98072,17.96985 5.09375,27.92773 -5.94043,-7.27419 -11.29328,-7.1751 -16.02343,-8.44336 4.05006,-7.65055 3.83326,-7.02588 3.67187,-17.76367 -0.0463,-0.39242 -0.0779,-0.75818 -0.0937,-1.09961 l -14.28711,17.81055 c 0.86866,2.48547 1.59951,5.08343 2.19141,7.82422 5.74329,-1.31649 11.394,-0.33434 18.13086,4.31055 4.45277,5.83101 7.33367,11.2126 14.82617,17.9121 l 18.42578,7.53321 c 2.36107,7.2689 -5.83438,13.55693 -8.92187,14.49414 l -7.30469,0.31641 c -3.46591,0.13232 -6.58236,0.52203 -9.38086,1.10546 l 26.41211,23.56446 c 18.45207,-14.14579 29.27932,-36.06593 29.29883,-59.31641 -0.034,-29.15811 -17.00671,-55.63964 -43.48438,-67.851562 z"
         transform="matrix(0.26458333,0,0,0.26458333,57.362642,832.35802)"
         id="path928" />
      <path
         style="fill:#1059d9;fill-opacity:1;stroke:none;stroke-width:0.35529295px;stroke-linecap:butt;stroke-linejoin:miter;stroke-opacity:1"
         d="m 96.663361,877.8459 c 0.22431,-0.0448 2.96093,0.89726 2.96093,0.89726 -0.0118,-0.64968 -0.0733,-1.26948 -0.62808,-1.59263 l -1.97395,-0.78508 z"
         id="path1038" />
    </g>
  </g>
</svg>
